<svg viewBox="-16 -32 880 192" width="880" height="192" xmlns="http://www.w3.org/2000/svg"><style>@keyframes c0{13.72%{fill:var(--c1)}13.74%,to{fill:var(--ce)}}@keyframes c1{62.65%{fill:var(--c2)}62.67%,to{fill:var(--ce)}}@keyframes c2{59.65%{fill:var(--c2)}59.67%,to{fill:var(--ce)}}@keyframes c3{17.16%{fill:var(--c1)}17.18%,to{fill:var(--ce)}}@keyframes c4{60.51%{fill:var(--c2)}60.53%,to{fill:var(--ce)}}@keyframes c5{18.87%{fill:var(--c1)}18.89%,to{fill:var(--ce)}}@keyframes c6{20.16%{fill:var(--c1)}20.18%,to{fill:var(--ce)}}@keyframes c7{68.23%{fill:var(--c3)}68.25%,to{fill:var(--ce)}}@keyframes c8{57.93%{fill:var(--c2)}57.95%,to{fill:var(--ce)}}@keyframes c9{21.45%{fill:var(--c1)}21.47%,to{fill:var(--ce)}}@keyframes ca{25.31%{fill:var(--c1)}25.33%,to{fill:var(--ce)}}@keyframes cb{66.08%{fill:var(--c3)}66.1%,to{fill:var(--ce)}}@keyframes cc{26.6%{fill:var(--c1)}26.62%,to{fill:var(--ce)}}@keyframes cd{80.25%{fill:var(--c4)}80.27%,to{fill:var(--ce)}}@keyframes ce{24.88%{fill:var(--c1)}24.9%,to{fill:var(--ce)}}@keyframes cf{45.48%{fill:var(--c1)}45.5%,to{fill:var(--ce)}}@keyframes cg{45.91%{fill:var(--c2)}45.93%,to{fill:var(--ce)}}@keyframes ch{24.02%{fill:var(--c1)}24.04%,to{fill:var(--ce)}}@keyframes ci{22.74%{fill:var(--c1)}22.76%,to{fill:var(--ce)}}@keyframes cj{71.66%{fill:var(--c3)}71.68%,to{fill:var(--ce)}}@keyframes ck{23.17%{fill:var(--c1)}23.19%,to{fill:var(--ce)}}@keyframes cl{29.6%{fill:var(--c1)}29.62%,to{fill:var(--ce)}}@keyframes cm{47.63%{fill:var(--c2)}47.65%,to{fill:var(--ce)}}@keyframes cn{28.75%{fill:var(--c1)}28.77%,to{fill:var(--ce)}}@keyframes co{30.46%{fill:var(--c1)}30.48%,to{fill:var(--ce)}}@keyframes cp{30.89%{fill:var(--c1)}30.91%,to{fill:var(--ce)}}@keyframes cq{49.78%{fill:var(--c2)}49.8%,to{fill:var(--ce)}}@keyframes cr{40.33%{fill:var(--c1)}40.35%,to{fill:var(--ce)}}@keyframes cs{34.32%{fill:var(--c1)}34.34%,to{fill:var(--ce)}}@keyframes ct{33.9%{fill:var(--c1)}33.92%,to{fill:var(--ce)}}@keyframes cu{32.18%{fill:var(--c1)}32.2%,to{fill:var(--ce)}}@keyframes cv{38.62%{fill:var(--c1)}38.64%,to{fill:var(--ce)}}@keyframes cw{39.9%{fill:var(--c1)}39.92%,to{fill:var(--ce)}}@keyframes cx{51.49%{fill:var(--c2)}51.51%,to{fill:var(--ce)}}@keyframes cy{33.04%{fill:var(--c1)}33.06%,to{fill:var(--ce)}}@keyframes cz{32.61%{fill:var(--c1)}32.63%,to{fill:var(--ce)}}@keyframes c10{39.05%{fill:var(--c1)}39.07%,to{fill:var(--ce)}}@keyframes c11{39.47%{fill:var(--c1)}39.49%,to{fill:var(--ce)}}@keyframes c12{35.61%{fill:var(--c1)}35.63%,to{fill:var(--ce)}}@keyframes c13{35.18%{fill:var(--c1)}35.2%,to{fill:var(--ce)}}@keyframes c14{51.92%{fill:var(--c2)}51.94%,to{fill:var(--ce)}}@keyframes c15{75.53%{fill:var(--c3)}75.55%,to{fill:var(--ce)}}@keyframes u0{13.72%{transform:scale(0,1)}13.74%,17.16%{transform:scale(.04,1)}17.18%,18.87%{transform:scale(.07,1)}18.89%,20.16%{transform:scale(.11,1)}20.18%,21.45%{transform:scale(.14,1)}21.47%,22.74%{transform:scale(.18,1)}22.76%,23.17%{transform:scale(.21,1)}23.19%,24.02%{transform:scale(.25,1)}24.04%,24.88%{transform:scale(.29,1)}24.9%,25.31%{transform:scale(.32,1)}25.33%,26.6%{transform:scale(.36,1)}26.62%,28.75%{transform:scale(.39,1)}28.77%,29.6%{transform:scale(.43,1)}29.62%,30.46%{transform:scale(.46,1)}30.48%,30.89%{transform:scale(.5,1)}30.91%,32.18%{transform:scale(.54,1)}32.2%,32.61%{transform:scale(.57,1)}32.63%,33.04%{transform:scale(.61,1)}33.06%,33.9%{transform:scale(.64,1)}33.92%,34.32%{transform:scale(.68,1)}34.34%,35.18%{transform:scale(.71,1)}35.2%,35.61%{transform:scale(.75,1)}35.63%,38.62%{transform:scale(.79,1)}38.64%,39.05%{transform:scale(.82,1)}39.07%,39.47%{transform:scale(.86,1)}39.49%,39.9%{transform:scale(.89,1)}39.92%,40.33%{transform:scale(.93,1)}40.35%,45.48%{transform:scale(.96,1)}45.5%,to{transform:scale(1,1)}}@keyframes u1{45.91%{transform:scale(0,1)}45.93%,47.63%{transform:scale(.11,1)}47.65%,49.78%{transform:scale(.22,1)}49.8%,51.49%{transform:scale(.33,1)}51.51%,51.92%{transform:scale(.44,1)}51.94%,57.93%{transform:scale(.56,1)}57.95%,59.65%{transform:scale(.67,1)}59.67%,60.51%{transform:scale(.78,1)}60.53%,62.65%{transform:scale(.89,1)}62.67%,to{transform:scale(1,1)}}@keyframes u2{66.08%{transform:scale(0,1)}66.1%,68.23%{transform:scale(.25,1)}68.25%,71.66%{transform:scale(.5,1)}71.68%,75.53%{transform:scale(.75,1)}75.55%,to{transform:scale(1,1)}}@keyframes u3{80.25%{transform:scale(0,1)}80.27%,to{transform:scale(1,1)}}@keyframes s0{0%,99.57%{transform:translate(0,-16px)}.43%{transform:translate(0,0)}12.88%{transform:translate(464px,0)}13.73%{transform:translate(464px,32px)}17.6%{transform:translate(608px,32px)}18.45%{transform:translate(608px,64px)}18.88%{transform:translate(592px,64px)}19.31%{transform:translate(592px,80px)}21.03%{transform:translate(656px,80px)}21.46%{transform:translate(656px,64px)}23.18%{transform:translate(720px,64px)}23.61%{transform:translate(720px,48px)}24.46%{transform:translate(688px,48px)}24.89%{transform:translate(688px,32px)}25.32%,67.38%{transform:translate(672px,32px)}26.18%,69.96%{transform:translate(672px,0)}28.33%{transform:translate(752px,0)}28.76%{transform:translate(752px,16px)}29.18%{transform:translate(736px,16px)}29.61%,46.78%{transform:translate(736px,32px)}30.04%{transform:translate(752px,32px)}30.9%{transform:translate(752px,64px)}32.62%{transform:translate(816px,64px)}33.05%,75.97%{transform:translate(816px,48px)}33.48%{transform:translate(800px,48px)}34.33%{transform:translate(800px,16px)}35.19%,74.68%{transform:translate(832px,16px)}35.62%,52.79%{transform:translate(832px,0)}36.48%{transform:translate(800px,0)}38.63%{transform:translate(800px,80px)}39.06%{transform:translate(816px,80px)}39.48%{transform:translate(816px,96px)}40.34%{transform:translate(784px,96px)}42.92%{transform:translate(784px,0)}45.06%{transform:translate(704px,0)}45.92%{transform:translate(704px,32px)}47.64%{transform:translate(736px,64px)}48.5%{transform:translate(768px,64px)}49.79%{transform:translate(768px,16px)}51.07%,76.82%{transform:translate(816px,16px)}51.5%{transform:translate(816px,32px)}51.93%{transform:translate(832px,32px)}57.51%{transform:translate(656px,0)}57.94%{transform:translate(656px,16px)}59.66%{transform:translate(592px,16px)}60.52%{transform:translate(592px,48px)}61.8%{transform:translate(544px,48px)}62.66%{transform:translate(544px,80px)}66.09%{transform:translate(672px,80px)}68.24%{transform:translate(640px,32px)}68.67%{transform:translate(640px,16px)}69.53%{transform:translate(672px,16px)}71.24%{transform:translate(720px,0)}71.67%{transform:translate(720px,16px)}75.54%{transform:translate(832px,48px)}96.57%{transform:translate(80px,16px)}97%{transform:translate(80px,0)}97.85%{transform:translate(48px,0)}98.28%{transform:translate(48px,-16px)}}@keyframes s1{0%,99.57%{transform:translate(16px,-16px)}.43%{transform:translate(0,-16px)}.86%{transform:translate(0,0)}13.3%{transform:translate(464px,0)}14.16%{transform:translate(464px,32px)}18.03%{transform:translate(608px,32px)}18.88%{transform:translate(608px,64px)}19.31%{transform:translate(592px,64px)}19.74%{transform:translate(592px,80px)}21.46%{transform:translate(656px,80px)}21.89%{transform:translate(656px,64px)}23.61%{transform:translate(720px,64px)}24.03%{transform:translate(720px,48px)}24.89%{transform:translate(688px,48px)}25.32%{transform:translate(688px,32px)}25.75%,67.81%{transform:translate(672px,32px)}26.61%,70.39%{transform:translate(672px,0)}28.76%{transform:translate(752px,0)}29.18%{transform:translate(752px,16px)}29.61%{transform:translate(736px,16px)}30.04%,47.21%{transform:translate(736px,32px)}30.47%{transform:translate(752px,32px)}31.33%{transform:translate(752px,64px)}33.05%{transform:translate(816px,64px)}33.48%,76.39%{transform:translate(816px,48px)}33.91%{transform:translate(800px,48px)}34.76%{transform:translate(800px,16px)}35.62%,75.11%{transform:translate(832px,16px)}36.05%,53.22%{transform:translate(832px,0)}36.91%{transform:translate(800px,0)}39.06%{transform:translate(800px,80px)}39.48%{transform:translate(816px,80px)}39.91%{transform:translate(816px,96px)}40.77%{transform:translate(784px,96px)}43.35%{transform:translate(784px,0)}45.49%{transform:translate(704px,0)}46.35%{transform:translate(704px,32px)}48.07%{transform:translate(736px,64px)}48.93%{transform:translate(768px,64px)}50.21%{transform:translate(768px,16px)}51.5%,77.25%{transform:translate(816px,16px)}51.93%{transform:translate(816px,32px)}52.36%{transform:translate(832px,32px)}57.94%{transform:translate(656px,0)}58.37%{transform:translate(656px,16px)}60.09%{transform:translate(592px,16px)}60.94%{transform:translate(592px,48px)}62.23%{transform:translate(544px,48px)}63.09%{transform:translate(544px,80px)}66.52%{transform:translate(672px,80px)}68.67%{transform:translate(640px,32px)}69.1%{transform:translate(640px,16px)}69.96%{transform:translate(672px,16px)}71.67%{transform:translate(720px,0)}72.1%{transform:translate(720px,16px)}75.97%{transform:translate(832px,48px)}97%{transform:translate(80px,16px)}97.42%{transform:translate(80px,0)}98.28%{transform:translate(48px,0)}98.71%{transform:translate(48px,-16px)}}@keyframes s2{0%,99.57%{transform:translate(32px,-16px)}.86%{transform:translate(0,-16px)}1.29%{transform:translate(0,0)}13.73%{transform:translate(464px,0)}14.59%{transform:translate(464px,32px)}18.45%{transform:translate(608px,32px)}19.31%{transform:translate(608px,64px)}19.74%{transform:translate(592px,64px)}20.17%{transform:translate(592px,80px)}21.89%{transform:translate(656px,80px)}22.32%{transform:translate(656px,64px)}24.03%{transform:translate(720px,64px)}24.46%{transform:translate(720px,48px)}25.32%{transform:translate(688px,48px)}25.75%{transform:translate(688px,32px)}26.18%,68.24%{transform:translate(672px,32px)}27.04%,70.82%{transform:translate(672px,0)}29.18%{transform:translate(752px,0)}29.61%{transform:translate(752px,16px)}30.04%{transform:translate(736px,16px)}30.47%,47.64%{transform:translate(736px,32px)}30.9%{transform:translate(752px,32px)}31.76%{transform:translate(752px,64px)}33.48%{transform:translate(816px,64px)}33.91%,76.82%{transform:translate(816px,48px)}34.33%{transform:translate(800px,48px)}35.19%{transform:translate(800px,16px)}36.05%,75.54%{transform:translate(832px,16px)}36.48%,53.65%{transform:translate(832px,0)}37.34%{transform:translate(800px,0)}39.48%{transform:translate(800px,80px)}39.91%{transform:translate(816px,80px)}40.34%{transform:translate(816px,96px)}41.2%{transform:translate(784px,96px)}43.78%{transform:translate(784px,0)}45.92%{transform:translate(704px,0)}46.78%{transform:translate(704px,32px)}48.5%{transform:translate(736px,64px)}49.36%{transform:translate(768px,64px)}50.64%{transform:translate(768px,16px)}51.93%,77.68%{transform:translate(816px,16px)}52.36%{transform:translate(816px,32px)}52.79%{transform:translate(832px,32px)}58.37%{transform:translate(656px,0)}58.8%{transform:translate(656px,16px)}60.52%{transform:translate(592px,16px)}61.37%{transform:translate(592px,48px)}62.66%{transform:translate(544px,48px)}63.52%{transform:translate(544px,80px)}66.95%{transform:translate(672px,80px)}69.1%{transform:translate(640px,32px)}69.53%{transform:translate(640px,16px)}70.39%{transform:translate(672px,16px)}72.1%{transform:translate(720px,0)}72.53%{transform:translate(720px,16px)}76.39%{transform:translate(832px,48px)}97.42%{transform:translate(80px,16px)}97.85%{transform:translate(80px,0)}98.71%{transform:translate(48px,0)}99.14%{transform:translate(48px,-16px)}}@keyframes s3{0%,99.57%{transform:translate(48px,-16px)}1.29%{transform:translate(0,-16px)}1.72%{transform:translate(0,0)}14.16%{transform:translate(464px,0)}15.02%{transform:translate(464px,32px)}18.88%{transform:translate(608px,32px)}19.74%{transform:translate(608px,64px)}20.17%{transform:translate(592px,64px)}20.6%{transform:translate(592px,80px)}22.32%{transform:translate(656px,80px)}22.75%{transform:translate(656px,64px)}24.46%{transform:translate(720px,64px)}24.89%{transform:translate(720px,48px)}25.75%{transform:translate(688px,48px)}26.18%{transform:translate(688px,32px)}26.61%,68.67%{transform:translate(672px,32px)}27.47%,71.24%{transform:translate(672px,0)}29.61%{transform:translate(752px,0)}30.04%{transform:translate(752px,16px)}30.47%{transform:translate(736px,16px)}30.9%,48.07%{transform:translate(736px,32px)}31.33%{transform:translate(752px,32px)}32.19%{transform:translate(752px,64px)}33.91%{transform:translate(816px,64px)}34.33%,77.25%{transform:translate(816px,48px)}34.76%{transform:translate(800px,48px)}35.62%{transform:translate(800px,16px)}36.48%,75.97%{transform:translate(832px,16px)}36.91%,54.08%{transform:translate(832px,0)}37.77%{transform:translate(800px,0)}39.91%{transform:translate(800px,80px)}40.34%{transform:translate(816px,80px)}40.77%{transform:translate(816px,96px)}41.63%{transform:translate(784px,96px)}44.21%{transform:translate(784px,0)}46.35%{transform:translate(704px,0)}47.21%{transform:translate(704px,32px)}48.93%{transform:translate(736px,64px)}49.79%{transform:translate(768px,64px)}51.07%{transform:translate(768px,16px)}52.36%,78.11%{transform:translate(816px,16px)}52.79%{transform:translate(816px,32px)}53.22%{transform:translate(832px,32px)}58.8%{transform:translate(656px,0)}59.23%{transform:translate(656px,16px)}60.94%{transform:translate(592px,16px)}61.8%{transform:translate(592px,48px)}63.09%{transform:translate(544px,48px)}63.95%{transform:translate(544px,80px)}67.38%{transform:translate(672px,80px)}69.53%{transform:translate(640px,32px)}69.96%{transform:translate(640px,16px)}70.82%{transform:translate(672px,16px)}72.53%{transform:translate(720px,0)}72.96%{transform:translate(720px,16px)}76.82%{transform:translate(832px,48px)}97.85%{transform:translate(80px,16px)}98.28%{transform:translate(80px,0)}99.14%{transform:translate(48px,0)}}:root{--cb:#1b1f230a;--cs:purple;--ce:#ebedf0;--c0:#ebedf0;--c1:#9be9a8;--c2:#40c463;--c3:#30a14e;--c4:#216e39}.c{shape-rendering:geometricPrecision;rx:2;ry:2;fill:var(--ce);stroke-width:1px;stroke:var(--cb);animation:none 23300ms linear infinite}.c.c0{fill:var(--c1);animation-name:c0}.c.c1,.c.c2{fill:var(--c2);animation-name:c1}.c.c2{animation-name:c2}.c.c3{fill:var(--c1);animation-name:c3}.c.c4{fill:var(--c2);animation-name:c4}.c.c5,.c.c6{fill:var(--c1);animation-name:c5}.c.c6{animation-name:c6}.c.c7{fill:var(--c3);animation-name:c7}.c.c8{fill:var(--c2);animation-name:c8}.c.c9,.c.ca{fill:var(--c1);animation-name:c9}.c.ca{animation-name:ca}.c.cb{fill:var(--c3);animation-name:cb}.c.cc{fill:var(--c1);animation-name:cc}.c.cd{fill:var(--c4);animation-name:cd}.c.ce,.c.cf{fill:var(--c1);animation-name:ce}.c.cf{animation-name:cf}.c.cg{fill:var(--c2);animation-name:cg}.c.ch,.c.ci{fill:var(--c1);animation-name:ch}.c.ci{animation-name:ci}.c.cj{fill:var(--c3);animation-name:cj}.c.ck,.c.cl{fill:var(--c1);animation-name:ck}.c.cl{animation-name:cl}.c.cm{fill:var(--c2);animation-name:cm}.c.cn,.c.co,.c.cp{fill:var(--c1);animation-name:cn}.c.co,.c.cp{animation-name:co}.c.cp{animation-name:cp}.c.cq{fill:var(--c2);animation-name:cq}.c.cr,.c.cs,.c.ct{fill:var(--c1);animation-name:cr}.c.cs,.c.ct{animation-name:cs}.c.ct{animation-name:ct}.c.cu,.c.cv,.c.cw{fill:var(--c1);animation-name:cu}.c.cv,.c.cw{animation-name:cv}.c.cw{animation-name:cw}.c.cx{fill:var(--c2);animation-name:cx}.c.c10,.c.cy,.c.cz{fill:var(--c1);animation-name:cy}.c.c10,.c.cz{animation-name:cz}.c.c10{animation-name:c10}.c.c11,.c.c12,.c.c13{fill:var(--c1);animation-name:c11}.c.c12,.c.c13{animation-name:c12}.c.c13{animation-name:c13}.c.c14{fill:var(--c2);animation-name:c14}.c.c15{fill:var(--c3);animation-name:c15}.s,.u{animation:none linear 23300ms infinite}.u,.u.u0{transform-origin:0 0}.u{transform:scale(0,1)}.u.u0{fill:var(--c1);animation-name:u0}.u.u1{fill:var(--c2);animation-name:u1;transform-origin:565.3px 0}.u.u2{fill:var(--c3);animation-name:u2;transform-origin:747px 0}.u.u3{fill:var(--c4);animation-name:u3;transform-origin:827.8px 0}.s{shape-rendering:geometricPrecision;fill:var(--cs)}.s.s0{transform:translate(0,-16px);animation-name:s0}.s.s1{transform:translate(16px,-16px);animation-name:s1}.s.s2{transform:translate(32px,-16px);animation-name:s2}.s.s3{transform:translate(48px,-16px);animation-name:s3}</style><rect class="c" x="2" y="2" width="12" height="12"/><rect class="c" x="2" y="18" width="12" height="12"/><rect class="c" x="2" y="34" width="12" height="12"/><rect class="c" x="2" y="50" width="12" height="12"/><rect class="c" x="2" y="66" width="12" height="12"/><rect class="c" x="2" y="82" width="12" height="12"/><rect class="c" x="2" y="98" width="12" height="12"/><rect class="c" x="18" y="2" width="12" height="12"/><rect class="c" x="18" y="18" width="12" height="12"/><rect class="c" x="18" y="34" width="12" height="12"/><rect class="c" x="18" y="50" width="12" height="12"/><rect class="c" x="18" y="66" width="12" height="12"/><rect class="c" x="18" y="82" width="12" height="12"/><rect class="c" x="18" y="98" width="12" height="12"/><rect class="c" x="34" y="2" width="12" height="12"/><rect class="c" x="34" y="18" width="12" height="12"/><rect class="c" x="34" y="34" width="12" height="12"/><rect class="c" x="34" y="50" width="12" height="12"/><rect class="c" x="34" y="66" width="12" height="12"/><rect class="c" x="34" y="82" width="12" height="12"/><rect class="c" x="34" y="98" width="12" height="12"/><rect class="c" x="50" y="2" width="12" height="12"/><rect class="c" x="50" y="18" width="12" height="12"/><rect class="c" x="50" y="34" width="12" height="12"/><rect class="c" x="50" y="50" width="12" height="12"/><rect class="c" x="50" y="66" width="12" height="12"/><rect class="c" x="50" y="82" width="12" height="12"/><rect class="c" x="50" y="98" width="12" height="12"/><rect class="c" x="66" y="2" width="12" height="12"/><rect class="c" x="66" y="18" width="12" height="12"/><rect class="c" x="66" y="34" width="12" height="12"/><rect class="c" x="66" y="50" width="12" height="12"/><rect class="c" x="66" y="66" width="12" height="12"/><rect class="c" x="66" y="82" width="12" height="12"/><rect class="c" x="66" y="98" width="12" height="12"/><rect class="c" x="82" y="2" width="12" height="12"/><rect class="c" x="82" y="18" width="12" height="12"/><rect class="c" x="82" y="34" width="12" height="12"/><rect class="c" x="82" y="50" width="12" height="12"/><rect class="c" x="82" y="66" width="12" height="12"/><rect class="c" x="82" y="82" width="12" height="12"/><rect class="c" x="82" y="98" width="12" height="12"/><rect class="c" x="98" y="2" width="12" height="12"/><rect class="c" x="98" y="18" width="12" height="12"/><rect class="c" x="98" y="34" width="12" height="12"/><rect class="c" x="98" y="50" width="12" height="12"/><rect class="c" x="98" y="66" width="12" height="12"/><rect class="c" x="98" y="82" width="12" height="12"/><rect class="c" x="98" y="98" width="12" height="12"/><rect class="c" x="114" y="2" width="12" height="12"/><rect class="c" x="114" y="18" width="12" height="12"/><rect class="c" x="114" y="34" width="12" height="12"/><rect class="c" x="114" y="50" width="12" height="12"/><rect class="c" x="114" y="66" width="12" height="12"/><rect class="c" x="114" y="82" width="12" height="12"/><rect class="c" x="114" y="98" width="12" height="12"/><rect class="c" x="130" y="2" width="12" height="12"/><rect class="c" x="130" y="18" width="12" height="12"/><rect class="c" x="130" y="34" width="12" height="12"/><rect class="c" x="130" y="50" width="12" height="12"/><rect class="c" x="130" y="66" width="12" height="12"/><rect class="c" x="130" y="82" width="12" height="12"/><rect class="c" x="130" y="98" width="12" height="12"/><rect class="c" x="146" y="2" width="12" height="12"/><rect class="c" x="146" y="18" width="12" height="12"/><rect class="c" x="146" y="34" width="12" height="12"/><rect class="c" x="146" y="50" width="12" height="12"/><rect class="c" x="146" y="66" width="12" height="12"/><rect class="c" x="146" y="82" width="12" height="12"/><rect class="c" x="146" y="98" width="12" height="12"/><rect class="c" x="162" y="2" width="12" height="12"/><rect class="c" x="162" y="18" width="12" height="12"/><rect class="c" x="162" y="34" width="12" height="12"/><rect class="c" x="162" y="50" width="12" height="12"/><rect class="c" x="162" y="66" width="12" height="12"/><rect class="c" x="162" y="82" width="12" height="12"/><rect class="c" x="162" y="98" width="12" height="12"/><rect class="c" x="178" y="2" width="12" height="12"/><rect class="c" x="178" y="18" width="12" height="12"/><rect class="c" x="178" y="34" width="12" height="12"/><rect class="c" x="178" y="50" width="12" height="12"/><rect class="c" x="178" y="66" width="12" height="12"/><rect class="c" x="178" y="82" width="12" height="12"/><rect class="c" x="178" y="98" width="12" height="12"/><rect class="c" x="194" y="2" width="12" height="12"/><rect class="c" x="194" y="18" width="12" height="12"/><rect class="c" x="194" y="34" width="12" height="12"/><rect class="c" x="194" y="50" width="12" height="12"/><rect class="c" x="194" y="66" width="12" height="12"/><rect class="c" x="194" y="82" width="12" height="12"/><rect class="c" x="194" y="98" width="12" height="12"/><rect class="c" x="210" y="2" width="12" height="12"/><rect class="c" x="210" y="18" width="12" height="12"/><rect class="c" x="210" y="34" width="12" height="12"/><rect class="c" x="210" y="50" width="12" height="12"/><rect class="c" x="210" y="66" width="12" height="12"/><rect class="c" x="210" y="82" width="12" height="12"/><rect class="c" x="210" y="98" width="12" height="12"/><rect class="c" x="226" y="2" width="12" height="12"/><rect class="c" x="226" y="18" width="12" height="12"/><rect class="c" x="226" y="34" width="12" height="12"/><rect class="c" x="226" y="50" width="12" height="12"/><rect class="c" x="226" y="66" width="12" height="12"/><rect class="c" x="226" y="82" width="12" height="12"/><rect class="c" x="226" y="98" width="12" height="12"/><rect class="c" x="242" y="2" width="12" height="12"/><rect class="c" x="242" y="18" width="12" height="12"/><rect class="c" x="242" y="34" width="12" height="12"/><rect class="c" x="242" y="50" width="12" height="12"/><rect class="c" x="242" y="66" width="12" height="12"/><rect class="c" x="242" y="82" width="12" height="12"/><rect class="c" x="242" y="98" width="12" height="12"/><rect class="c" x="258" y="2" width="12" height="12"/><rect class="c" x="258" y="18" width="12" height="12"/><rect class="c" x="258" y="34" width="12" height="12"/><rect class="c" x="258" y="50" width="12" height="12"/><rect class="c" x="258" y="66" width="12" height="12"/><rect class="c" x="258" y="82" width="12" height="12"/><rect class="c" x="258" y="98" width="12" height="12"/><rect class="c" x="274" y="2" width="12" height="12"/><rect class="c" x="274" y="18" width="12" height="12"/><rect class="c" x="274" y="34" width="12" height="12"/><rect class="c" x="274" y="50" width="12" height="12"/><rect class="c" x="274" y="66" width="12" height="12"/><rect class="c" x="274" y="82" width="12" height="12"/><rect class="c" x="274" y="98" width="12" height="12"/><rect class="c" x="290" y="2" width="12" height="12"/><rect class="c" x="290" y="18" width="12" height="12"/><rect class="c" x="290" y="34" width="12" height="12"/><rect class="c" x="290" y="50" width="12" height="12"/><rect class="c" x="290" y="66" width="12" height="12"/><rect class="c" x="290" y="82" width="12" height="12"/><rect class="c" x="290" y="98" width="12" height="12"/><rect class="c" x="306" y="2" width="12" height="12"/><rect class="c" x="306" y="18" width="12" height="12"/><rect class="c" x="306" y="34" width="12" height="12"/><rect class="c" x="306" y="50" width="12" height="12"/><rect class="c" x="306" y="66" width="12" height="12"/><rect class="c" x="306" y="82" width="12" height="12"/><rect class="c" x="306" y="98" width="12" height="12"/><rect class="c" x="322" y="2" width="12" height="12"/><rect class="c" x="322" y="18" width="12" height="12"/><rect class="c" x="322" y="34" width="12" height="12"/><rect class="c" x="322" y="50" width="12" height="12"/><rect class="c" x="322" y="66" width="12" height="12"/><rect class="c" x="322" y="82" width="12" height="12"/><rect class="c" x="322" y="98" width="12" height="12"/><rect class="c" x="338" y="2" width="12" height="12"/><rect class="c" x="338" y="18" width="12" height="12"/><rect class="c" x="338" y="34" width="12" height="12"/><rect class="c" x="338" y="50" width="12" height="12"/><rect class="c" x="338" y="66" width="12" height="12"/><rect class="c" x="338" y="82" width="12" height="12"/><rect class="c" x="338" y="98" width="12" height="12"/><rect class="c" x="354" y="2" width="12" height="12"/><rect class="c" x="354" y="18" width="12" height="12"/><rect class="c" x="354" y="34" width="12" height="12"/><rect class="c" x="354" y="50" width="12" height="12"/><rect class="c" x="354" y="66" width="12" height="12"/><rect class="c" x="354" y="82" width="12" height="12"/><rect class="c" x="354" y="98" width="12" height="12"/><rect class="c" x="370" y="2" width="12" height="12"/><rect class="c" x="370" y="18" width="12" height="12"/><rect class="c" x="370" y="34" width="12" height="12"/><rect class="c" x="370" y="50" width="12" height="12"/><rect class="c" x="370" y="66" width="12" height="12"/><rect class="c" x="370" y="82" width="12" height="12"/><rect class="c" x="370" y="98" width="12" height="12"/><rect class="c" x="386" y="2" width="12" height="12"/><rect class="c" x="386" y="18" width="12" height="12"/><rect class="c" x="386" y="34" width="12" height="12"/><rect class="c" x="386" y="50" width="12" height="12"/><rect class="c" x="386" y="66" width="12" height="12"/><rect class="c" x="386" y="82" width="12" height="12"/><rect class="c" x="386" y="98" width="12" height="12"/><rect class="c" x="402" y="2" width="12" height="12"/><rect class="c" x="402" y="18" width="12" height="12"/><rect class="c" x="402" y="34" width="12" height="12"/><rect class="c" x="402" y="50" width="12" height="12"/><rect class="c" x="402" y="66" width="12" height="12"/><rect class="c" x="402" y="82" width="12" height="12"/><rect class="c" x="402" y="98" width="12" height="12"/><rect class="c" x="418" y="2" width="12" height="12"/><rect class="c" x="418" y="18" width="12" height="12"/><rect class="c" x="418" y="34" width="12" height="12"/><rect class="c" x="418" y="50" width="12" height="12"/><rect class="c" x="418" y="66" width="12" height="12"/><rect class="c" x="418" y="82" width="12" height="12"/><rect class="c" x="418" y="98" width="12" height="12"/><rect class="c" x="434" y="2" width="12" height="12"/><rect class="c" x="434" y="18" width="12" height="12"/><rect class="c" x="434" y="34" width="12" height="12"/><rect class="c" x="434" y="50" width="12" height="12"/><rect class="c" x="434" y="66" width="12" height="12"/><rect class="c" x="434" y="82" width="12" height="12"/><rect class="c" x="434" y="98" width="12" height="12"/><rect class="c" x="450" y="2" width="12" height="12"/><rect class="c" x="450" y="18" width="12" height="12"/><rect class="c" x="450" y="34" width="12" height="12"/><rect class="c" x="450" y="50" width="12" height="12"/><rect class="c" x="450" y="66" width="12" height="12"/><rect class="c" x="450" y="82" width="12" height="12"/><rect class="c" x="450" y="98" width="12" height="12"/><rect class="c" x="466" y="2" width="12" height="12"/><rect class="c" x="466" y="18" width="12" height="12"/><rect class="c c0" x="466" y="34" width="12" height="12"/><rect class="c" x="466" y="50" width="12" height="12"/><rect class="c" x="466" y="66" width="12" height="12"/><rect class="c" x="466" y="82" width="12" height="12"/><rect class="c" x="466" y="98" width="12" height="12"/><rect class="c" x="482" y="2" width="12" height="12"/><rect class="c" x="482" y="18" width="12" height="12"/><rect class="c" x="482" y="34" width="12" height="12"/><rect class="c" x="482" y="50" width="12" height="12"/><rect class="c" x="482" y="66" width="12" height="12"/><rect class="c" x="482" y="82" width="12" height="12"/><rect class="c" x="482" y="98" width="12" height="12"/><rect class="c" x="498" y="2" width="12" height="12"/><rect class="c" x="498" y="18" width="12" height="12"/><rect class="c" x="498" y="34" width="12" height="12"/><rect class="c" x="498" y="50" width="12" height="12"/><rect class="c" x="498" y="66" width="12" height="12"/><rect class="c" x="498" y="82" width="12" height="12"/><rect class="c" x="498" y="98" width="12" height="12"/><rect class="c" x="514" y="2" width="12" height="12"/><rect class="c" x="514" y="18" width="12" height="12"/><rect class="c" x="514" y="34" width="12" height="12"/><rect class="c" x="514" y="50" width="12" height="12"/><rect class="c" x="514" y="66" width="12" height="12"/><rect class="c" x="514" y="82" width="12" height="12"/><rect class="c" x="514" y="98" width="12" height="12"/><rect class="c" x="530" y="2" width="12" height="12"/><rect class="c" x="530" y="18" width="12" height="12"/><rect class="c" x="530" y="34" width="12" height="12"/><rect class="c" x="530" y="50" width="12" height="12"/><rect class="c" x="530" y="66" width="12" height="12"/><rect class="c" x="530" y="82" width="12" height="12"/><rect class="c" x="530" y="98" width="12" height="12"/><rect class="c" x="546" y="2" width="12" height="12"/><rect class="c" x="546" y="18" width="12" height="12"/><rect class="c" x="546" y="34" width="12" height="12"/><rect class="c" x="546" y="50" width="12" height="12"/><rect class="c" x="546" y="66" width="12" height="12"/><rect class="c c1" x="546" y="82" width="12" height="12"/><rect class="c" x="546" y="98" width="12" height="12"/><rect class="c" x="562" y="2" width="12" height="12"/><rect class="c" x="562" y="18" width="12" height="12"/><rect class="c" x="562" y="34" width="12" height="12"/><rect class="c" x="562" y="50" width="12" height="12"/><rect class="c" x="562" y="66" width="12" height="12"/><rect class="c" x="562" y="82" width="12" height="12"/><rect class="c" x="562" y="98" width="12" height="12"/><rect class="c" x="578" y="2" width="12" height="12"/><rect class="c" x="578" y="18" width="12" height="12"/><rect class="c" x="578" y="34" width="12" height="12"/><rect class="c" x="578" y="50" width="12" height="12"/><rect class="c" x="578" y="66" width="12" height="12"/><rect class="c" x="578" y="82" width="12" height="12"/><rect class="c" x="578" y="98" width="12" height="12"/><rect class="c" x="594" y="2" width="12" height="12"/><rect class="c c2" x="594" y="18" width="12" height="12"/><rect class="c c3" x="594" y="34" width="12" height="12"/><rect class="c c4" x="594" y="50" width="12" height="12"/><rect class="c c5" x="594" y="66" width="12" height="12"/><rect class="c" x="594" y="82" width="12" height="12"/><rect class="c" x="594" y="98" width="12" height="12"/><rect class="c" x="610" y="2" width="12" height="12"/><rect class="c" x="610" y="18" width="12" height="12"/><rect class="c" x="610" y="34" width="12" height="12"/><rect class="c" x="610" y="50" width="12" height="12"/><rect class="c" x="610" y="66" width="12" height="12"/><rect class="c" x="610" y="82" width="12" height="12"/><rect class="c" x="610" y="98" width="12" height="12"/><rect class="c" x="626" y="2" width="12" height="12"/><rect class="c" x="626" y="18" width="12" height="12"/><rect class="c" x="626" y="34" width="12" height="12"/><rect class="c" x="626" y="50" width="12" height="12"/><rect class="c" x="626" y="66" width="12" height="12"/><rect class="c c6" x="626" y="82" width="12" height="12"/><rect class="c" x="626" y="98" width="12" height="12"/><rect class="c" x="642" y="2" width="12" height="12"/><rect class="c" x="642" y="18" width="12" height="12"/><rect class="c c7" x="642" y="34" width="12" height="12"/><rect class="c" x="642" y="50" width="12" height="12"/><rect class="c" x="642" y="66" width="12" height="12"/><rect class="c" x="642" y="82" width="12" height="12"/><rect class="c" x="642" y="98" width="12" height="12"/><rect class="c" x="658" y="2" width="12" height="12"/><rect class="c c8" x="658" y="18" width="12" height="12"/><rect class="c" x="658" y="34" width="12" height="12"/><rect class="c" x="658" y="50" width="12" height="12"/><rect class="c c9" x="658" y="66" width="12" height="12"/><rect class="c" x="658" y="82" width="12" height="12"/><rect class="c" x="658" y="98" width="12" height="12"/><rect class="c" x="674" y="2" width="12" height="12"/><rect class="c" x="674" y="18" width="12" height="12"/><rect class="c ca" x="674" y="34" width="12" height="12"/><rect class="c" x="674" y="50" width="12" height="12"/><rect class="c" x="674" y="66" width="12" height="12"/><rect class="c cb" x="674" y="82" width="12" height="12"/><rect class="c" x="674" y="98" width="12" height="12"/><rect class="c cc" x="690" y="2" width="12" height="12"/><rect class="c cd" x="690" y="18" width="12" height="12"/><rect class="c ce" x="690" y="34" width="12" height="12"/><rect class="c" x="690" y="50" width="12" height="12"/><rect class="c" x="690" y="66" width="12" height="12"/><rect class="c" x="690" y="82" width="12" height="12"/><rect class="c" x="690" y="98" width="12" height="12"/><rect class="c" x="706" y="2" width="12" height="12"/><rect class="c cf" x="706" y="18" width="12" height="12"/><rect class="c cg" x="706" y="34" width="12" height="12"/><rect class="c ch" x="706" y="50" width="12" height="12"/><rect class="c ci" x="706" y="66" width="12" height="12"/><rect class="c" x="706" y="82" width="12" height="12"/><rect class="c" x="706" y="98" width="12" height="12"/><rect class="c" x="722" y="2" width="12" height="12"/><rect class="c cj" x="722" y="18" width="12" height="12"/><rect class="c" x="722" y="34" width="12" height="12"/><rect class="c" x="722" y="50" width="12" height="12"/><rect class="c ck" x="722" y="66" width="12" height="12"/><rect class="c" x="722" y="82" width="12" height="12"/><rect class="c" x="722" y="98" width="12" height="12"/><rect class="c" x="738" y="2" width="12" height="12"/><rect class="c" x="738" y="18" width="12" height="12"/><rect class="c cl" x="738" y="34" width="12" height="12"/><rect class="c" x="738" y="50" width="12" height="12"/><rect class="c cm" x="738" y="66" width="12" height="12"/><rect class="c" x="738" y="82" width="12" height="12"/><rect class="c" x="738" y="98" width="12" height="12"/><rect class="c" x="754" y="2" width="12" height="12"/><rect class="c cn" x="754" y="18" width="12" height="12"/><rect class="c" x="754" y="34" width="12" height="12"/><rect class="c co" x="754" y="50" width="12" height="12"/><rect class="c cp" x="754" y="66" width="12" height="12"/><rect class="c" x="754" y="82" width="12" height="12"/><rect class="c" x="754" y="98" width="12" height="12"/><rect class="c" x="770" y="2" width="12" height="12"/><rect class="c cq" x="770" y="18" width="12" height="12"/><rect class="c" x="770" y="34" width="12" height="12"/><rect class="c" x="770" y="50" width="12" height="12"/><rect class="c" x="770" y="66" width="12" height="12"/><rect class="c" x="770" y="82" width="12" height="12"/><rect class="c" x="770" y="98" width="12" height="12"/><rect class="c" x="786" y="2" width="12" height="12"/><rect class="c" x="786" y="18" width="12" height="12"/><rect class="c" x="786" y="34" width="12" height="12"/><rect class="c" x="786" y="50" width="12" height="12"/><rect class="c" x="786" y="66" width="12" height="12"/><rect class="c" x="786" y="82" width="12" height="12"/><rect class="c cr" x="786" y="98" width="12" height="12"/><rect class="c" x="802" y="2" width="12" height="12"/><rect class="c cs" x="802" y="18" width="12" height="12"/><rect class="c ct" x="802" y="34" width="12" height="12"/><rect class="c" x="802" y="50" width="12" height="12"/><rect class="c cu" x="802" y="66" width="12" height="12"/><rect class="c cv" x="802" y="82" width="12" height="12"/><rect class="c cw" x="802" y="98" width="12" height="12"/><rect class="c" x="818" y="2" width="12" height="12"/><rect class="c" x="818" y="18" width="12" height="12"/><rect class="c cx" x="818" y="34" width="12" height="12"/><rect class="c cy" x="818" y="50" width="12" height="12"/><rect class="c cz" x="818" y="66" width="12" height="12"/><rect class="c c10" x="818" y="82" width="12" height="12"/><rect class="c c11" x="818" y="98" width="12" height="12"/><rect class="c c12" x="834" y="2" width="12" height="12"/><rect class="c c13" x="834" y="18" width="12" height="12"/><rect class="c c14" x="834" y="34" width="12" height="12"/><rect class="c c15" x="834" y="50" width="12" height="12"/><rect class="u u0" height="12" width="565.9" x="0.0" y="144"/><rect class="u u1" height="12" width="182.3" x="565.3" y="144"/><rect class="u u2" height="12" width="81.4" x="747.0" y="144"/><rect class="u u3" height="12" width="20.8" x="827.8" y="144"/><rect class="s s0" x="0.8" y="0.8" width="14.4" height="14.4" rx="4.5" ry="4.5"/><rect class="s s1" x="1.8" y="1.8" width="12.3" height="12.3" rx="4.1" ry="4.1"/><rect class="s s2" x="2.6" y="2.6" width="10.8" height="10.8" rx="3.6" ry="3.6"/><rect class="s s3" x="3.0" y="3.0" width="9.9" height="9.9" rx="3.3" ry="3.3"/></svg>
